PathFileType	4	(X/Y/Z)	/Users/itak/Documents/Research/Walk-IL/dataset/trc/00126_00007.trc
DataRate	CameraRate	NumFrames	NumMarkers	Units	OrigDataRate	OrigDataStartFrame	OrigNumFrames
100.000000	100.000000	4	55	mm	100.000000	373	747
Frame#	Time	RPSI			LPSI			L3			STRN			T10			C7			CLAV			RBAK			LBAK			LSHO			LUPA			LAEL			LAOL			LWTS			LWPS			LFRA			LIFD			LHPS			LHTS			RSHO			RUPA			RAEL			RAOL			RWTS			RWPS			RFRA			RIFD			RHTS			RHPS			RBHD			LFHD			RFHD			LBHD			LHIP			RHIP			RASI			LASI			LKNE			LTHI			LANK			LTIP			LTOE			LMT1			LMT5			LHEE			RKNE			RTHI			RANK			RTIP			RTOE			RMT1			RMT5			RHEE			*53			*54			
		X1	Y1	Z1	X2	Y2	Z2	X3	Y3	Z3	X4	Y4	Z4	X5	Y5	Z5	X6	Y6	Z6	X7	Y7	Z7	X8	Y8	Z8	X9	Y9	Z9	X10	Y10	Z10	X11	Y11	Z11	X12	Y12	Z12	X13	Y13	Z13	X14	Y14	Z14	X15	Y15	Z15	X16	Y16	Z16	X17	Y17	Z17	X18	Y18	Z18	X19	Y19	Z19	X20	Y20	Z20	X21	Y21	Z21	X22	Y22	Z22	X23	Y23	Z23	X24	Y24	Z24	X25	Y25	Z25	X26	Y26	Z26	X27	Y27	Z27	X28	Y28	Z28	X29	Y29	Z29	X30	Y30	Z30	X31	Y31	Z31	X32	Y32	Z32	X33	Y33	Z33	X34	Y34	Z34	X35	Y35	Z35	X36	Y36	Z36	X37	Y37	Z37	X38	Y38	Z38	X39	Y39	Z39	X40	Y40	Z40	X41	Y41	Z41	X42	Y42	Z42	X43	Y43	Z43	X44	Y44	Z44	X45	Y45	Z45	X46	Y46	Z46	X47	Y47	Z47	X48	Y48	Z48	X49	Y49	Z49	X50	Y50	Z50	X51	Y51	Z51	X52	Y52	Z52	X53	Y53	Z53	X54	Y54	Z54	X55	Y55	Z55	

374	3.73	98.69774627685547	1096.4794921875	-562.4083862304688	91.03150177001953	1091.620361328125	-426.7816162109375	102.4092025756836	1132.974975585938	-493.9043884277344	-123.8380889892578	1323.930908203125	-499.3755493164062	125.5088195800781	1282.687255859375	-501.1507873535156	86.61798858642578	1573.355224609375	-466.0936584472656	-90.29566192626953	1458.708862304688	-480.8392028808594	147.6139526367188	1401.068725585938	-570.0309448242188	93.57256317138672	1544.140991210938	-366.4958801269531	9.294428825378418	1522.69677734375	-297.7355041503906	48.03282165527344	1390.1240234375	-236.427490234375	68.74788665771484	1174.12158203125	-223.6903228759766	125.8959579467773	1171.998168945312	-290.9249877929688	3.286885976791382	904.7117309570312	-260.785400390625	90.09858703613281	891.677001953125	-248.9135589599609	71.01305389404297	1056.899780273438	-221.0378570556641	18.90958976745605	714.115966796875	-294.0711059570312	74.43562316894531	812.609375	-247.6798095703125	5.118335247039795	812.784423828125	-251.6967010498047	28.43011856079102	1569.704345703125	-646.3956909179688	42.01320648193359	1503.68212890625	-718.541015625	17.92767524719238	1216.00927734375	-789.1976928710938	38.71842575073242	1199.788330078125	-696.9602661132812	-169.9029083251953	1004.07177734375	-785.4520874023438	-104.3779373168945	977.7300415039062	-828.4382934570312	-21.56537246704102	1149.552490234375	-810.1365356445312	-230.3543243408203	818.4625244140625	-786.0307006835938	-223.3847045898438	906.2384643554688	-800.6966552734375	-163.2838287353516	889.2593383789062	-839.3215942382812	-12.29906463623047	1763.862060546875	-521.7084350585938	-119.0959701538086	1760.496459960938	-328.2467651367188	-171.0341186523438	1790.523071289062	-444.5666809082031	47.11766052246094	1740.445068359375	-403.4356384277344	-20.11237525939941	1004.28173828125	-329.0082397460938	-12.88383865356445	1005.114074707031	-695.845703125	-104.4229583740234	1072.27587890625	-652.88037109375	-119.1731567382812	1066.938232421875	-386.35595703125	-213.6494140625	541.3154296875	-357.1028442382812	-125.9138870239258	662.953125	-326.1973876953125	-307.7357788085938	40.55729675292969	-382.3810729980469	-211.1046295166016	275.3130798339844	-352.5327453613281	-524.5146484375	111.0686111450195	-375.5494995117188	-467.9237365722656	84.13193511962891	-427.9619140625	-412.0783996582031	76.50319671630859	-328.6431884765625	-261.880859375	22.29133415222168	-460.084228515625	71.36298370361328	520.256103515625	-695.9942626953125	-4.355427265167236	795.2916870117188	-702.3070678710938	336.5491333007812	61.26708984375	-704.4754638671875	140.015625	397.8197021484375	-713.2356567382812	97.31925964355469	35.95400238037109	-689.9234619140625	154.5190277099609	34.29898452758789	-640.3353881835938	209.7913970947266	37.95808410644531	-749.6114501953125	386.6578063964844	74.69867706298828	-647.5287475585938	nan	nan	nan	nan	nan	nan	
375	3.74	86.603515625	1096.015502929688	-559.80908203125	79.55660247802734	1091.162109375	-424.1683654785156	90.46951293945312	1131.770263671875	-491.2342834472656	-134.2996978759766	1323.740844726562	-496.0007019042969	114.7895584106445	1281.309936523438	-498.4761352539062	77.42730712890625	1572.293334960938	-463.489501953125	-99.86093139648438	1458.358032226562	-477.6550598144531	137.5953369140625	1399.694458007812	-567.5528564453125	84.85356903076172	1543.269165039062	-364.0330505371094	0.7073268294334412	1522.206909179688	-294.940185546875	39.49037170410156	1389.54541015625	-233.8190460205078	60.2440299987793	1173.55224609375	-221.3321533203125	116.8633651733398	1171.371215820312	-289.0625610351562	-5.306190490722656	904.0690307617188	-257.7315979003906	81.44699096679688	891.115478515625	-246.7546844482422	62.56687164306641	1056.339721679688	-218.6764984130859	10.12908744812012	713.50927734375	-291.5556945800781	65.86219024658203	812.0185546875	-245.5036315917969	-3.43670654296875	812.1121215820312	-248.8923950195312	18.88571166992188	1568.667602539062	-643.7726440429688	32.1220588684082	1502.415161132812	-715.7866821289062	7.909899234771729	1214.655029296875	-785.6111450195312	28.54748725891113	1198.665649414062	-693.3138427734375	-179.4773864746094	1002.3916015625	-781.7619018554688	-113.873405456543	976.1526489257812	-824.6279296875	-31.45893478393555	1148.154663085938	-806.486572265625	-239.5318298339844	816.6393432617188	-782.1539916992188	-232.2056274414062	904.2828979492188	-796.8776245117188	-172.521240234375	887.5337524414062	-835.46630859375	-21.4153003692627	1763.322875976562	-519.156982421875	-127.0108184814453	1760.290161132812	-325.0479431152344	-179.6013336181641	1790.2197265625	-441.1015319824219	38.45832443237305	1739.841186523438	-401.0291748046875	-31.12444686889648	1004.247375488281	-325.6957702636719	-25.45912170410156	1004.43603515625	-692.635498046875	-116.8157806396484	1071.760131835938	-649.4808959960938	-130.2338256835938	1066.758544921875	-382.8055419921875	-221.4241638183594	539.5924072265625	-355.2076110839844	-135.5476837158203	662.2313232421875	-324.4695434570312	-309.8694763183594	38.61475372314453	-381.2410278320312	-216.499755859375	273.6473083496094	-350.9175109863281	-528.3027954101562	103.6499557495117	-373.1947326660156	-471.0642395019531	78.26777648925781	-426.0884704589844	-414.59228515625	71.84672546386719	-327.1159973144531	-264.0706787109375	21.73625564575195	-459.1401977539062	60.44719314575195	519.8967895507812	-694.5783081054688	-16.61638832092285	794.7659912109375	-699.615966796875	335.2249450683594	65.45040893554688	-705.1217651367188	131.77880859375	398.779541015625	-712.5328369140625	96.96419525146484	35.83452987670898	-689.8079833984375	154.0081481933594	34.9813232421875	-640.5499877929688	209.0332336425781	38.2414436340332	-749.7681274414062	384.9053039550781	80.76351165771484	-648.1824951171875	nan	nan	nan	nan	nan	nan	
376	3.75	74.27983093261719	1095.753173828125	-557.0902709960938	67.96387481689453	1091.052978515625	-421.4496154785156	78.37403106689453	1130.864501953125	-488.4966430664062	-144.8954925537109	1323.845336914062	-492.3536987304688	103.9825973510742	1280.204467773438	-495.7276916503906	68.18331146240234	1571.448974609375	-460.7554626464844	-109.4813919067383	1458.278442382812	-474.2632446289062	127.4507293701172	1398.5009765625	-564.9472045898438	76.16423797607422	1542.63134765625	-361.4713439941406	-7.811014652252197	1521.942016601562	-292.0062561035156	30.97698783874512	1389.182983398438	-231.0842742919922	51.61619186401367	1173.169555664062	-218.7984466552734	107.7439117431641	1170.90576171875	-286.99951171875	-14.18997669219971	903.6683959960938	-254.5663146972656	72.49478912353516	890.7326049804688	-244.4180755615234	53.91645431518555	1055.967163085938	-216.1564331054688	0.915911078453064	713.1338500976562	-288.8810119628906	56.92518615722656	811.6318359375	-243.15234375	-12.35186767578125	811.6994018554688	-245.9583282470703	9.270392417907715	1567.829223632812	-641.0354614257812	22.17829704284668	1501.302001953125	-712.8750610351562	-1.905129671096802	1213.434448242188	-781.7446899414062	18.45053672790527	1197.710327148438	-689.3600463867188	-188.7701110839844	1000.745300292969	-777.9188842773438	-122.988655090332	974.631591796875	-820.5760498046875	-41.09967041015625	1146.849609375	-802.5686645507812	-248.3536376953125	814.8241577148438	-778.1346435546875	-240.684814453125	902.3380737304688	-792.9140625	-181.3168487548828	885.826171875	-831.3927612304688	-30.51691246032715	1763.085693359375	-516.4286499023438	-134.9201507568359	1760.37841796875	-321.7111206054688	-188.1323547363281	1790.225219726562	-437.4886779785156	29.83867454528809	1739.548583984375	-398.4717407226562	-42.14974212646484	1004.60302734375	-322.1392211914062	-38.37362289428711	1003.907104492188	-689.1773071289062	-129.4799957275391	1071.4580078125	-645.7463989257812	-141.3380432128906	1066.884155273438	-378.9230041503906	-228.8230743408203	538.0757446289062	-353.1859436035156	-144.9118041992188	661.7505493164062	-322.7580261230469	-311.3039245605469	36.89836883544922	-380.6925659179688	-221.3861389160156	272.1732482910156	-349.6956787109375	-531.6417846679688	95.51007843017578	-371.1804504394531	-473.6417236328125	72.10581207275391	-424.6800231933594	-416.5226135253906	66.83110046386719	-326.0690307617188	-265.5357055664062	21.84719085693359	-458.8577575683594	48.72478866577148	519.616943359375	-692.9959716796875	-29.39184761047363	794.3641967773438	-696.6218872070312	333.5570678710938	70.12313079833984	-705.7194213867188	122.8763961791992	399.989501953125	-711.745361328125	96.58519744873047	35.74213027954102	-689.711669921875	153.395263671875	35.77224349975586	-640.7498779296875	208.1786346435547	38.61690139770508	-749.8848876953125	382.6083374023438	87.52120208740234	-648.7935180664062	nan	nan	nan	nan	nan	nan	
377	3.76	61.77256774902344	1095.69873046875	-554.271484375	56.32267761230469	1091.336669921875	-418.6556091308594	66.19333648681641	1130.316162109375	-485.7132568359375	-155.60498046875	1324.2841796875	-488.4403991699219	93.10743713378906	1279.432250976562	-492.9599914550781	58.90367126464844	1570.8798828125	-457.9472351074219	-119.1674118041992	1458.513427734375	-470.6761169433594	117.1607666015625	1397.537963867188	-562.2538452148438	67.51768493652344	1542.267333984375	-358.8547058105469	-16.22323608398438	1521.938842773438	-288.9618225097656	22.52820587158203	1389.070922851562	-228.2543029785156	42.86134719848633	1173.007690429688	-216.1146392822266	98.53905487060547	1170.6279296875	-284.7545471191406	-23.36789703369141	903.5443115234375	-251.2949523925781	63.24627685546875	890.56298828125	-241.8993072509766	45.05575942993164	1055.819213867188	-213.4915618896484	-8.727845191955566	713.0213623046875	-286.0213317871094	47.62824249267578	811.4814453125	-240.6110382080078	-21.62551307678223	811.578369140625	-242.8822479248047	-0.449216216802597	1567.234619140625	-638.207763671875	12.15822601318359	1500.400268554688	-709.8374633789062	-11.5208625793457	1212.392700195312	-777.6036376953125	8.417682647705078	1196.976196289062	-685.0982666015625	-197.7617034912109	999.166015625	-773.9244384765625	-131.7025909423828	973.19921875	-816.276123046875	-50.48513793945312	1145.6767578125	-798.3853149414062	-256.8535766601562	813.06494140625	-773.9799194335938	-248.9228973388672	900.468505859375	-788.8274536132812	-189.6589050292969	884.17236328125	-827.0975341796875	-39.59209442138672	1763.191040039062	-513.5464477539062	-142.8011169433594	1760.794311523438	-318.2393493652344	-196.6236572265625	1790.586791992188	-433.7284851074219	21.29524230957031	1739.613525390625	-395.8065490722656	-53.11226654052734	1005.362426757812	-318.3765563964844	-51.58068084716797	1003.56884765625	-685.4859008789062	-142.3515319824219	1071.4140625	-641.673828125	-152.4308929443359	1067.357299804688	-374.7232360839844	-235.7658081054688	536.8184204101562	-350.98193359375	-153.8418731689453	661.5188598632812	-320.9891662597656	-312.5402526855469	35.49908447265625	-380.4560852050781	-225.9445495605469	270.9757080078125	-348.660400390625	-534.8892211914062	87.27105712890625	-369.8249206542969	-475.9871520996094	66.12514495849609	-423.8694152832031	-418.4568786621094	61.89752197265625	-325.4782104492188	-266.6405334472656	22.55869102478027	-458.8679809570312	36.13041305541992	519.4397583007812	-691.2824096679688	-42.64908599853516	794.1270751953125	-693.3392944335938	331.4413452148438	75.32292175292969	-706.2779541015625	113.2234954833984	401.4779663085938	-710.8972778320312	96.18941497802734	35.6753044128418	-689.6403198242188	152.6708221435547	36.66472244262695	-640.922119140625	207.2019958496094	39.10525894165039	-749.9710693359375	379.635009765625	95.01024627685547	-649.3869018554688	nan	nan	nan	nan	nan	nan	
